M48
; DRILL file {KiCad 9.0.3} date 2026-01-25T12:42:19-0500
; FORMAT={-:-/ absolute / metric / decimal}
; #@! TF.CreationDate,2026-01-25T12:42:19-05:00
; #@! TF.GenerationSoftware,Kicad,Pcbnew,9.0.3
; #@! TF.FileFunction,Plated,1,2,PTH
FMAT,2
METRIC
; #@! TA.AperFunction,Plated,PTH,ComponentDrill
T1C0.800
; #@! TA.AperFunction,Plated,PTH,ComponentDrill
T2C1.000
; #@! TA.AperFunction,Plated,PTH,ComponentDrill
T3C1.500
%
G90
G05
T1
X96.34Y-67.7
X96.34Y-71.25
X96.34Y-74.8
X96.34Y-78.35
X96.34Y-81.9
X96.34Y-85.45
X103.96Y-67.7
X103.96Y-71.25
X103.96Y-74.8
X103.96Y-78.35
X103.96Y-81.9
X103.96Y-85.45
T2
X119.85Y-43.42
X119.85Y-45.96
X119.85Y-48.5
X119.85Y-51.04
X161.15Y-44.8
X161.15Y-47.3
X161.15Y-49.8
X175.65Y-44.8
X175.65Y-49.8
T3
X123.85Y-84.25
X123.9Y-64.14
X130.2Y-81.71
X130.25Y-61.6
X143.85Y-84.24
X143.9Y-64.2
X150.2Y-81.7
X150.25Y-61.66
X163.95Y-64.19
X163.95Y-84.25
X170.3Y-61.65
X170.3Y-81.71
T3
G00X168.0Y-41.7
M15
G01X169.3Y-41.7
M16
G05
G00X168.0Y-52.9
M15
G01X169.3Y-52.9
M16
G05
M30
