%TF.GenerationSoftware,KiCad,Pcbnew,9.0.3*%
%TF.CreationDate,2026-01-25T12:41:43-05:00*%
%TF.ProjectId,hackclub_macropad,6861636b-636c-4756-925f-6d6163726f70,rev?*%
%TF.SameCoordinates,Original*%
%TF.FileFunction,Soldermask,Top*%
%TF.FilePolarity,Negative*%
%FSLAX46Y46*%
G04 Gerber Fmt 4.6, Leading zero omitted, Abs format (unit mm)*
G04 Created by KiCad (PCBNEW 9.0.3) date 2026-01-25 12:41:43*
%MOMM*%
%LPD*%
G01*
G04 APERTURE LIST*
G04 Aperture macros list*
%AMRoundRect*
0 Rectangle with rounded corners*
0 $1 Rounding radius*
0 $2 $3 $4 $5 $6 $7 $8 $9 X,Y pos of 4 corners*
0 Add a 4 corners polygon primitive as box body*
4,1,4,$2,$3,$4,$5,$6,$7,$8,$9,$2,$3,0*
0 Add four circle primitives for the rounded corners*
1,1,$1+$1,$2,$3*
1,1,$1+$1,$4,$5*
1,1,$1+$1,$6,$7*
1,1,$1+$1,$8,$9*
0 Add four rect primitives between the rounded corners*
20,1,$1+$1,$2,$3,$4,$5,0*
20,1,$1+$1,$4,$5,$6,$7,0*
20,1,$1+$1,$6,$7,$8,$9,0*
20,1,$1+$1,$8,$9,$2,$3,0*%
G04 Aperture macros list end*
%ADD10RoundRect,0.551000X-0.926000X-0.551000X0.926000X-0.551000X0.926000X0.551000X-0.926000X0.551000X0*%
%ADD11C,1.700000*%
%ADD12C,4.000000*%
%ADD13C,2.200000*%
%ADD14R,1.700000X1.700000*%
%ADD15O,2.200000X1.600000*%
%ADD16C,2.100000*%
%ADD17R,2.000000X2.000000*%
%ADD18C,2.000000*%
%ADD19R,3.200000X2.000000*%
%ADD20RoundRect,0.250000X-0.550000X-0.550000X0.550000X-0.550000X0.550000X0.550000X-0.550000X0.550000X0*%
%ADD21C,1.600000*%
G04 APERTURE END LIST*
D10*
%TO.C,U1*%
X92600000Y-55770000D03*
X92600000Y-53230000D03*
X92600000Y-50690000D03*
X92600000Y-48150000D03*
X92600000Y-45610000D03*
X92600000Y-43070000D03*
X92600000Y-40530000D03*
X108800000Y-55770000D03*
X108800000Y-53230000D03*
X108800000Y-50690000D03*
X108800000Y-48150000D03*
X108800000Y-45610000D03*
X108800000Y-43070000D03*
X108800000Y-40530000D03*
%TD*%
D11*
%TO.C,SW6*%
X162680000Y-86790000D03*
D12*
X167760000Y-86790000D03*
D11*
X172840000Y-86790000D03*
D13*
X170300000Y-81710000D03*
X163950000Y-84250000D03*
%TD*%
D11*
%TO.C,SW5*%
X162680000Y-66730000D03*
D12*
X167760000Y-66730000D03*
D11*
X172840000Y-66730000D03*
D13*
X170300000Y-61650000D03*
X163950000Y-64190000D03*
%TD*%
D11*
%TO.C,SW4*%
X142580000Y-86780000D03*
D12*
X147660000Y-86780000D03*
D11*
X152740000Y-86780000D03*
D13*
X150200000Y-81700000D03*
X143850000Y-84240000D03*
%TD*%
D11*
%TO.C,SW3*%
X142630000Y-66740000D03*
D12*
X147710000Y-66740000D03*
D11*
X152790000Y-66740000D03*
D13*
X150250000Y-61660000D03*
X143900000Y-64200000D03*
%TD*%
D11*
%TO.C,SW2*%
X122580000Y-86790000D03*
D12*
X127660000Y-86790000D03*
D11*
X132740000Y-86790000D03*
D13*
X130200000Y-81710000D03*
X123850000Y-84250000D03*
%TD*%
D11*
%TO.C,SW1*%
X122630000Y-66680000D03*
D12*
X127710000Y-66680000D03*
D11*
X132790000Y-66680000D03*
D13*
X130250000Y-61600000D03*
X123900000Y-64140000D03*
%TD*%
D14*
%TO.C,J_OLED1*%
X119850000Y-43420000D03*
D11*
X119850000Y-45960000D03*
X119850000Y-48500000D03*
X119850000Y-51040000D03*
%TD*%
D15*
%TO.C,ENC1*%
X164150000Y-47300000D03*
D16*
X168650000Y-47300000D03*
D17*
X161150000Y-44800000D03*
D18*
X161150000Y-49800000D03*
X161150000Y-47300000D03*
D19*
X168650000Y-41700000D03*
X168650000Y-52900000D03*
D18*
X175650000Y-49800000D03*
X175650000Y-44800000D03*
%TD*%
D20*
%TO.C,D6*%
X96340000Y-85450000D03*
D21*
X103960000Y-85450000D03*
%TD*%
D20*
%TO.C,D5*%
X96340000Y-81900000D03*
D21*
X103960000Y-81900000D03*
%TD*%
D20*
%TO.C,D4*%
X96340000Y-78350000D03*
D21*
X103960000Y-78350000D03*
%TD*%
D20*
%TO.C,D3*%
X96340000Y-74800000D03*
D21*
X103960000Y-74800000D03*
%TD*%
D20*
%TO.C,D2*%
X96340000Y-71250000D03*
D21*
X103960000Y-71250000D03*
%TD*%
D20*
%TO.C,D1*%
X96340000Y-67700000D03*
D21*
X103960000Y-67700000D03*
%TD*%
M02*
